<?xml version="1.0" encoding="UTF-8" standalone="no"?><svg xmlns="http://www.w3.org/2000/svg" xmlns:xlink="http://www.w3.org/1999/xlink" contentScriptType="application/ecmascript" contentStyleType="text/css" height="1262.5px" preserveAspectRatio="none" style="width:1923px;height:1262px;" version="1.1" viewBox="0 0 1923 1262" width="1923.75px" zoomAndPan="magnify"><defs><filter height="300%" id="f1v54z9rmlq7dv" width="300%" x="-1" y="-1"><feGaussianBlur result="blurOut" stdDeviation="2.5"/><feColorMatrix in="blurOut" result="blurOut2" type="matrix" values="0 0 0 0 0 0 0 0 0 0 0 0 0 0 0 0 0 0 .4 0"/><feOffset dx="5.0" dy="5.0" in="blurOut2" result="blurOut3"/><feBlend in="SourceGraphic" in2="blurOut3" mode="normal"/></filter></defs><g><!--MD5=[eabf67cae4684a68768c499d7e5043ef]
class AspNetRoleClaims--><rect codeLine="3" fill="#FEFECE" filter="url(#f1v54z9rmlq7dv)" height="149.1797" id="AspNetRoleClaims" style="stroke:#A80036;stroke-width:1.875;" width="172.5" x="848.75" y="927.5"/><ellipse cx="867.5" cy="947.5" fill="#ADD1B2" rx="13.75" ry="13.75" style="stroke:#A80036;stroke-width:1.25;"/><path d="M870,943.125 Q870.2539,942.5 870.5469,942.1875 Q870.8398,941.875 871.1719,941.875 Q871.7578,941.875 872.1289,942.2266 Q872.5,942.5781 872.5,943.3984 L872.5,945.3516 Q872.5,946.1719 872.1484,946.5234 Q871.7969,946.875 871.25,946.875 Q870.7617,946.875 870.4492,946.6602 Q870.1367,946.4453 870,945.8789 Q869.9414,945.4883 869.7266,945.2734 Q869.3359,944.8633 868.6328,944.6289 Q867.9297,944.375 867.2266,944.375 Q866.3477,944.375 865.6055,944.7266 Q864.8828,945.0781 864.3164,945.8594 Q863.75,946.6406 863.75,947.7148 L863.75,948.8672 Q863.75,950.1563 864.8047,951.0156 Q865.8594,951.875 867.7344,951.875 Q868.8477,951.875 869.6289,951.6211 Q870.0781,951.4844 870.5859,951.0352 Q870.918,950.7813 871.0938,950.7031 Q871.2695,950.625 871.4844,950.625 Q871.8945,950.625 872.1875,950.957 Q872.5,951.2695 872.5,951.7188 Q872.5,952.1484 872.0703,952.6563 Q871.4453,953.3984 870.4492,953.8086 Q869.1406,954.375 867.5391,954.375 Q865.6641,954.375 864.1602,953.6328 Q862.9492,953.0469 862.0898,951.7773 Q861.25,950.5078 861.25,949.0039 L861.25,947.6367 Q861.25,946.0742 861.9922,944.707 Q862.7539,943.3398 864.0625,942.6172 Q865.3906,941.875 866.875,941.875 Q867.7734,941.875 868.5547,942.1875 Q869.3359,942.5 870,943.125 Z " fill="#000000"/><text fill="#000000" font-family="sans-serif" font-size="15" lengthAdjust="spacing" textLength="132.5" x="885" y="953.6377">AspNetRoleClaims</text><line style="stroke:#A80036;stroke-width:1.875;" x1="850" x2="1020" y1="967.5" y2="967.5"/><ellipse cx="862.5" cy="981.25" rx="3.75" ry="3.75" style="stroke:#038048;stroke-width:1.25;fill:none;"/><text fill="#000000" font-family="sans-serif" font-size="13.75" lengthAdjust="spacing" textLength="52.5" x="873.75" y="986.7737">INTEGER</text><text fill="#000000" font-family="sans-serif" font-size="13.75" lengthAdjust="spacing" text-decoration="underline" textLength="10" x="933.75" y="986.7737">Id</text><line style="stroke:#A80036;stroke-width:1.875;" x1="850" x2="1020" y1="994.7949" y2="994.7949"/><ellipse cx="862.5" cy="1008.5449" rx="3.75" ry="3.75" style="stroke:#038048;stroke-width:1.25;fill:none;"/><text fill="#000000" font-family="sans-serif" font-size="13.75" lengthAdjust="spacing" textLength="71.25" x="873.75" y="1014.0686">TEXT RoleId</text><line style="stroke:#A80036;stroke-width:1.875;" x1="850" x2="1020" y1="1022.0898" y2="1022.0898"/><ellipse cx="862.5" cy="1035.8398" rx="3.75" ry="3.75" style="stroke:#038048;stroke-width:1.25;fill:none;"/><text fill="#000000" font-family="sans-serif" font-size="13.75" lengthAdjust="spacing" textLength="96.25" x="873.75" y="1041.3635">TEXT ClaimType</text><line style="stroke:#A80036;stroke-width:1.875;" x1="850" x2="1020" y1="1049.3848" y2="1049.3848"/><ellipse cx="862.5" cy="1063.1348" rx="3.75" ry="3.75" style="stroke:#038048;stroke-width:1.25;fill:none;"/><text fill="#000000" font-family="sans-serif" font-size="13.75" lengthAdjust="spacing" textLength="101.25" x="873.75" y="1068.6584">TEXT ClaimValue</text><!--MD5=[8ec6d9711f38a0e7b7dbf685b4ed695d]
class AspNetRoles--><rect codeLine="12" fill="#FEFECE" filter="url(#f1v54z9rmlq7dv)" height="149.1797" id="AspNetRoles" style="stroke:#A80036;stroke-width:1.875;" width="183.75" x="620.625" y="927.5"/><ellipse cx="663" cy="947.5" fill="#ADD1B2" rx="13.75" ry="13.75" style="stroke:#A80036;stroke-width:1.25;"/><path d="M665.5,943.125 Q665.7539,942.5 666.0469,942.1875 Q666.3398,941.875 666.6719,941.875 Q667.2578,941.875 667.6289,942.2266 Q668,942.5781 668,943.3984 L668,945.3516 Q668,946.1719 667.6484,946.5234 Q667.2969,946.875 666.75,946.875 Q666.2617,946.875 665.9492,946.6602 Q665.6367,946.4453 665.5,945.8789 Q665.4414,945.4883 665.2266,945.2734 Q664.8359,944.8633 664.1328,944.6289 Q663.4297,944.375 662.7266,944.375 Q661.8477,944.375 661.1055,944.7266 Q660.3828,945.0781 659.8164,945.8594 Q659.25,946.6406 659.25,947.7148 L659.25,948.8672 Q659.25,950.1563 660.3047,951.0156 Q661.3594,951.875 663.2344,951.875 Q664.3477,951.875 665.1289,951.6211 Q665.5781,951.4844 666.0859,951.0352 Q666.418,950.7813 666.5938,950.7031 Q666.7695,950.625 666.9844,950.625 Q667.3945,950.625 667.6875,950.957 Q668,951.2695 668,951.7188 Q668,952.1484 667.5703,952.6563 Q666.9453,953.3984 665.9492,953.8086 Q664.6406,954.375 663.0391,954.375 Q661.1641,954.375 659.6602,953.6328 Q658.4492,953.0469 657.5898,951.7773 Q656.75,950.5078 656.75,949.0039 L656.75,947.6367 Q656.75,946.0742 657.4922,944.707 Q658.2539,943.3398 659.5625,942.6172 Q660.8906,941.875 662.375,941.875 Q663.2734,941.875 664.0547,942.1875 Q664.8359,942.5 665.5,943.125 Z " fill="#000000"/><text fill="#000000" font-family="sans-serif" font-size="15" lengthAdjust="spacing" textLength="91.25" x="685.75" y="953.6377">AspNetRoles</text><line style="stroke:#A80036;stroke-width:1.875;" x1="621.875" x2="803.125" y1="967.5" y2="967.5"/><ellipse cx="634.375" cy="981.25" rx="3.75" ry="3.75" style="stroke:#038048;stroke-width:1.25;fill:none;"/><text fill="#000000" font-family="sans-serif" font-size="13.75" lengthAdjust="spacing" textLength="31.25" x="645.625" y="986.7737">TEXT</text><text fill="#000000" font-family="sans-serif" font-size="13.75" lengthAdjust="spacing" text-decoration="underline" textLength="10" x="684.375" y="986.7737">Id</text><line style="stroke:#A80036;stroke-width:1.875;" x1="621.875" x2="803.125" y1="994.7949" y2="994.7949"/><ellipse cx="634.375" cy="1008.5449" rx="3.75" ry="3.75" style="stroke:#038048;stroke-width:1.25;fill:none;"/><text fill="#000000" font-family="sans-serif" font-size="13.75" lengthAdjust="spacing" textLength="68.75" x="645.625" y="1014.0686">TEXT Name</text><line style="stroke:#A80036;stroke-width:1.875;" x1="621.875" x2="803.125" y1="1022.0898" y2="1022.0898"/><ellipse cx="634.375" cy="1035.8398" rx="3.75" ry="3.75" style="stroke:#038048;stroke-width:1.25;fill:none;"/><text fill="#000000" font-family="sans-serif" font-size="13.75" lengthAdjust="spacing" textLength="135" x="645.625" y="1041.3635">TEXT NormalizedName</text><line style="stroke:#A80036;stroke-width:1.875;" x1="621.875" x2="803.125" y1="1049.3848" y2="1049.3848"/><ellipse cx="634.375" cy="1063.1348" rx="3.75" ry="3.75" style="stroke:#038048;stroke-width:1.25;fill:none;"/><text fill="#000000" font-family="sans-serif" font-size="13.75" lengthAdjust="spacing" textLength="151.25" x="645.625" y="1068.6584">TEXT ConcurrencyStamp</text><!--MD5=[aa18c11a945bae35c48e483fbb3cb22d]
class AspNetUserClaims--><rect codeLine="21" fill="#FEFECE" filter="url(#f1v54z9rmlq7dv)" height="149.1797" id="AspNetUserClaims" style="stroke:#A80036;stroke-width:1.875;" width="173.75" x="1493.125" y="553.125"/><ellipse cx="1511.875" cy="573.125" fill="#ADD1B2" rx="13.75" ry="13.75" style="stroke:#A80036;stroke-width:1.25;"/><path d="M1514.375,568.75 Q1514.6289,568.125 1514.9219,567.8125 Q1515.2148,567.5 1515.5469,567.5 Q1516.1328,567.5 1516.5039,567.8516 Q1516.875,568.2031 1516.875,569.0234 L1516.875,570.9766 Q1516.875,571.7969 1516.5234,572.1484 Q1516.1719,572.5 1515.625,572.5 Q1515.1367,572.5 1514.8242,572.2852 Q1514.5117,572.0703 1514.375,571.5039 Q1514.3164,571.1133 1514.1016,570.8984 Q1513.7109,570.4883 1513.0078,570.2539 Q1512.3047,570 1511.6016,570 Q1510.7227,570 1509.9805,570.3516 Q1509.2578,570.7031 1508.6914,571.4844 Q1508.125,572.2656 1508.125,573.3398 L1508.125,574.4922 Q1508.125,575.7813 1509.1797,576.6406 Q1510.2344,577.5 1512.1094,577.5 Q1513.2227,577.5 1514.0039,577.2461 Q1514.4531,577.1094 1514.9609,576.6602 Q1515.293,576.4063 1515.4688,576.3281 Q1515.6445,576.25 1515.8594,576.25 Q1516.2695,576.25 1516.5625,576.582 Q1516.875,576.8945 1516.875,577.3438 Q1516.875,577.7734 1516.4453,578.2813 Q1515.8203,579.0234 1514.8242,579.4336 Q1513.5156,580 1511.9141,580 Q1510.0391,580 1508.5352,579.2578 Q1507.3242,578.6719 1506.4648,577.4023 Q1505.625,576.1328 1505.625,574.6289 L1505.625,573.2617 Q1505.625,571.6992 1506.3672,570.332 Q1507.1289,568.9648 1508.4375,568.2422 Q1509.7656,567.5 1511.25,567.5 Q1512.1484,567.5 1512.9297,567.8125 Q1513.7109,568.125 1514.375,568.75 Z " fill="#000000"/><text fill="#000000" font-family="sans-serif" font-size="15" lengthAdjust="spacing" textLength="133.75" x="1529.375" y="579.2627">AspNetUserClaims</text><line style="stroke:#A80036;stroke-width:1.875;" x1="1494.375" x2="1665.625" y1="593.125" y2="593.125"/><ellipse cx="1506.875" cy="606.875" rx="3.75" ry="3.75" style="stroke:#038048;stroke-width:1.25;fill:none;"/><text fill="#000000" font-family="sans-serif" font-size="13.75" lengthAdjust="spacing" textLength="52.5" x="1518.125" y="612.3987">INTEGER</text><text fill="#000000" font-family="sans-serif" font-size="13.75" lengthAdjust="spacing" text-decoration="underline" textLength="10" x="1578.125" y="612.3987">Id</text><line style="stroke:#A80036;stroke-width:1.875;" x1="1494.375" x2="1665.625" y1="620.4199" y2="620.4199"/><ellipse cx="1506.875" cy="634.1699" rx="3.75" ry="3.75" style="stroke:#038048;stroke-width:1.25;fill:none;"/><text fill="#000000" font-family="sans-serif" font-size="13.75" lengthAdjust="spacing" textLength="73.75" x="1518.125" y="639.6936">TEXT UserId</text><line style="stroke:#A80036;stroke-width:1.875;" x1="1494.375" x2="1665.625" y1="647.7148" y2="647.7148"/><ellipse cx="1506.875" cy="661.4648" rx="3.75" ry="3.75" style="stroke:#038048;stroke-width:1.25;fill:none;"/><text fill="#000000" font-family="sans-serif" font-size="13.75" lengthAdjust="spacing" textLength="96.25" x="1518.125" y="666.9885">TEXT ClaimType</text><line style="stroke:#A80036;stroke-width:1.875;" x1="1494.375" x2="1665.625" y1="675.0098" y2="675.0098"/><ellipse cx="1506.875" cy="688.7598" rx="3.75" ry="3.75" style="stroke:#038048;stroke-width:1.25;fill:none;"/><text fill="#000000" font-family="sans-serif" font-size="13.75" lengthAdjust="spacing" textLength="101.25" x="1518.125" y="694.2834">TEXT ClaimValue</text><!--MD5=[2134e22c1be3650864235724c78168b6]
class AspNetUserLogins--><rect codeLine="30" fill="#FEFECE" filter="url(#f1v54z9rmlq7dv)" height="149.1797" id="AspNetUserLogins" style="stroke:#A80036;stroke-width:1.875;" width="195" x="1711.25" y="553.125"/><ellipse cx="1740.6875" cy="573.125" fill="#ADD1B2" rx="13.75" ry="13.75" style="stroke:#A80036;stroke-width:1.25;"/><path d="M1743.1875,568.75 Q1743.4414,568.125 1743.7344,567.8125 Q1744.0273,567.5 1744.3594,567.5 Q1744.9453,567.5 1745.3164,567.8516 Q1745.6875,568.2031 1745.6875,569.0234 L1745.6875,570.9766 Q1745.6875,571.7969 1745.3359,572.1484 Q1744.9844,572.5 1744.4375,572.5 Q1743.9492,572.5 1743.6367,572.2852 Q1743.3242,572.0703 1743.1875,571.5039 Q1743.1289,571.1133 1742.9141,570.8984 Q1742.5234,570.4883 1741.8203,570.2539 Q1741.1172,570 1740.4141,570 Q1739.5352,570 1738.793,570.3516 Q1738.0703,570.7031 1737.5039,571.4844 Q1736.9375,572.2656 1736.9375,573.3398 L1736.9375,574.4922 Q1736.9375,575.7813 1737.9922,576.6406 Q1739.0469,577.5 1740.9219,577.5 Q1742.0352,577.5 1742.8164,577.2461 Q1743.2656,577.1094 1743.7734,576.6602 Q1744.1055,576.4063 1744.2813,576.3281 Q1744.457,576.25 1744.6719,576.25 Q1745.082,576.25 1745.375,576.582 Q1745.6875,576.8945 1745.6875,577.3438 Q1745.6875,577.7734 1745.2578,578.2813 Q1744.6328,579.0234 1743.6367,579.4336 Q1742.3281,580 1740.7266,580 Q1738.8516,580 1737.3477,579.2578 Q1736.1367,578.6719 1735.2773,577.4023 Q1734.4375,576.1328 1734.4375,574.6289 L1734.4375,573.2617 Q1734.4375,571.6992 1735.1797,570.332 Q1735.9414,568.9648 1737.25,568.2422 Q1738.5781,567.5 1740.0625,567.5 Q1740.9609,567.5 1741.7422,567.8125 Q1742.5234,568.125 1743.1875,568.75 Z " fill="#000000"/><text fill="#000000" font-family="sans-serif" font-size="15" lengthAdjust="spacing" textLength="131.25" x="1760.5625" y="579.2627">AspNetUserLogins</text><line style="stroke:#A80036;stroke-width:1.875;" x1="1712.5" x2="1905" y1="593.125" y2="593.125"/><ellipse cx="1725" cy="606.875" rx="3.75" ry="3.75" style="stroke:#038048;stroke-width:1.25;fill:none;"/><text fill="#000000" font-family="sans-serif" font-size="13.75" lengthAdjust="spacing" textLength="117.5" x="1736.25" y="612.3987">TEXT LoginProvider</text><line style="stroke:#A80036;stroke-width:1.875;" x1="1712.5" x2="1905" y1="620.4199" y2="620.4199"/><ellipse cx="1725" cy="634.1699" rx="3.75" ry="3.75" style="stroke:#038048;stroke-width:1.25;fill:none;"/><text fill="#000000" font-family="sans-serif" font-size="13.75" lengthAdjust="spacing" textLength="108.75" x="1736.25" y="639.6936">TEXT ProviderKey</text><line style="stroke:#A80036;stroke-width:1.875;" x1="1712.5" x2="1905" y1="647.7148" y2="647.7148"/><ellipse cx="1725" cy="661.4648" rx="3.75" ry="3.75" style="stroke:#038048;stroke-width:1.25;fill:none;"/><text fill="#000000" font-family="sans-serif" font-size="13.75" lengthAdjust="spacing" textLength="162.5" x="1736.25" y="666.9885">TEXT ProviderDisplayName</text><line style="stroke:#A80036;stroke-width:1.875;" x1="1712.5" x2="1905" y1="675.0098" y2="675.0098"/><ellipse cx="1725" cy="688.7598" rx="3.75" ry="3.75" style="stroke:#038048;stroke-width:1.25;fill:none;"/><text fill="#000000" font-family="sans-serif" font-size="13.75" lengthAdjust="spacing" textLength="31.25" x="1736.25" y="694.2834">TEXT</text><text fill="#000000" font-family="sans-serif" font-size="13.75" lengthAdjust="spacing" text-decoration="underline" textLength="38.75" x="1775" y="694.2834">UserId</text><!--MD5=[98266eb1c3683dd72df69c8ffc20c694]
class AspNetUserRoles--><rect codeLine="39" fill="#FEFECE" filter="url(#f1v54z9rmlq7dv)" height="94.5898" id="AspNetUserRoles" style="stroke:#A80036;stroke-width:1.875;" width="165" x="411.25" y="954.375"/><ellipse cx="430" cy="974.375" fill="#ADD1B2" rx="13.75" ry="13.75" style="stroke:#A80036;stroke-width:1.25;"/><path d="M432.5,970 Q432.7539,969.375 433.0469,969.0625 Q433.3398,968.75 433.6719,968.75 Q434.2578,968.75 434.6289,969.1016 Q435,969.4531 435,970.2734 L435,972.2266 Q435,973.0469 434.6484,973.3984 Q434.2969,973.75 433.75,973.75 Q433.2617,973.75 432.9492,973.5352 Q432.6367,973.3203 432.5,972.7539 Q432.4414,972.3633 432.2266,972.1484 Q431.8359,971.7383 431.1328,971.5039 Q430.4297,971.25 429.7266,971.25 Q428.8477,971.25 428.1055,971.6016 Q427.3828,971.9531 426.8164,972.7344 Q426.25,973.5156 426.25,974.5898 L426.25,975.7422 Q426.25,977.0313 427.3047,977.8906 Q428.3594,978.75 430.2344,978.75 Q431.3477,978.75 432.1289,978.4961 Q432.5781,978.3594 433.0859,977.9102 Q433.418,977.6563 433.5938,977.5781 Q433.7695,977.5 433.9844,977.5 Q434.3945,977.5 434.6875,977.832 Q435,978.1445 435,978.5938 Q435,979.0234 434.5703,979.5313 Q433.9453,980.2734 432.9492,980.6836 Q431.6406,981.25 430.0391,981.25 Q428.1641,981.25 426.6602,980.5078 Q425.4492,979.9219 424.5898,978.6523 Q423.75,977.3828 423.75,975.8789 L423.75,974.5117 Q423.75,972.9492 424.4922,971.582 Q425.2539,970.2148 426.5625,969.4922 Q427.8906,968.75 429.375,968.75 Q430.2734,968.75 431.0547,969.0625 Q431.8359,969.375 432.5,970 Z " fill="#000000"/><text fill="#000000" font-family="sans-serif" font-size="15" lengthAdjust="spacing" textLength="125" x="447.5" y="980.5127">AspNetUserRoles</text><line style="stroke:#A80036;stroke-width:1.875;" x1="412.5" x2="575" y1="994.375" y2="994.375"/><ellipse cx="425" cy="1008.125" rx="3.75" ry="3.75" style="stroke:#038048;stroke-width:1.25;fill:none;"/><text fill="#000000" font-family="sans-serif" font-size="13.75" lengthAdjust="spacing" textLength="31.25" x="436.25" y="1013.6487">TEXT</text><text fill="#000000" font-family="sans-serif" font-size="13.75" lengthAdjust="spacing" text-decoration="underline" textLength="38.75" x="471.25" y="1013.6487">UserId</text><line style="stroke:#A80036;stroke-width:1.875;" x1="412.5" x2="575" y1="1021.6699" y2="1021.6699"/><ellipse cx="425" cy="1035.4199" rx="3.75" ry="3.75" style="stroke:#038048;stroke-width:1.25;fill:none;"/><text fill="#000000" font-family="sans-serif" font-size="13.75" lengthAdjust="spacing" textLength="71.25" x="436.25" y="1040.9436">TEXT RoleId</text><!--MD5=[df9cd2d52e631f4498c4fad468e2574a]
class AspNetUserTokens--><rect codeLine="44" fill="#FEFECE" filter="url(#f1v54z9rmlq7dv)" height="149.1797" id="AspNetUserTokens" style="stroke:#A80036;stroke-width:1.875;" width="175" x="1273.75" y="553.125"/><ellipse cx="1292.5" cy="573.125" fill="#ADD1B2" rx="13.75" ry="13.75" style="stroke:#A80036;stroke-width:1.25;"/><path d="M1295,568.75 Q1295.2539,568.125 1295.5469,567.8125 Q1295.8398,567.5 1296.1719,567.5 Q1296.7578,567.5 1297.1289,567.8516 Q1297.5,568.2031 1297.5,569.0234 L1297.5,570.9766 Q1297.5,571.7969 1297.1484,572.1484 Q1296.7969,572.5 1296.25,572.5 Q1295.7617,572.5 1295.4492,572.2852 Q1295.1367,572.0703 1295,571.5039 Q1294.9414,571.1133 1294.7266,570.8984 Q1294.3359,570.4883 1293.6328,570.2539 Q1292.9297,570 1292.2266,570 Q1291.3477,570 1290.6055,570.3516 Q1289.8828,570.7031 1289.3164,571.4844 Q1288.75,572.2656 1288.75,573.3398 L1288.75,574.4922 Q1288.75,575.7813 1289.8047,576.6406 Q1290.8594,577.5 1292.7344,577.5 Q1293.8477,577.5 1294.6289,577.2461 Q1295.0781,577.1094 1295.5859,576.6602 Q1295.918,576.4063 1296.0938,576.3281 Q1296.2695,576.25 1296.4844,576.25 Q1296.8945,576.25 1297.1875,576.582 Q1297.5,576.8945 1297.5,577.3438 Q1297.5,577.7734 1297.0703,578.2813 Q1296.4453,579.0234 1295.4492,579.4336 Q1294.1406,580 1292.5391,580 Q1290.6641,580 1289.1602,579.2578 Q1287.9492,578.6719 1287.0898,577.4023 Q1286.25,576.1328 1286.25,574.6289 L1286.25,573.2617 Q1286.25,571.6992 1286.9922,570.332 Q1287.7539,568.9648 1289.0625,568.2422 Q1290.3906,567.5 1291.875,567.5 Q1292.7734,567.5 1293.5547,567.8125 Q1294.3359,568.125 1295,568.75 Z " fill="#000000"/><text fill="#000000" font-family="sans-serif" font-size="15" lengthAdjust="spacing" textLength="135" x="1310" y="579.2627">AspNetUserTokens</text><line style="stroke:#A80036;stroke-width:1.875;" x1="1275" x2="1447.5" y1="593.125" y2="593.125"/><ellipse cx="1287.5" cy="606.875" rx="3.75" ry="3.75" style="stroke:#038048;stroke-width:1.25;fill:none;"/><text fill="#000000" font-family="sans-serif" font-size="13.75" lengthAdjust="spacing" textLength="31.25" x="1298.75" y="612.3987">TEXT</text><text fill="#000000" font-family="sans-serif" font-size="13.75" lengthAdjust="spacing" text-decoration="underline" textLength="38.75" x="1337.5" y="612.3987">UserId</text><line style="stroke:#A80036;stroke-width:1.875;" x1="1275" x2="1447.5" y1="620.4199" y2="620.4199"/><ellipse cx="1287.5" cy="634.1699" rx="3.75" ry="3.75" style="stroke:#038048;stroke-width:1.25;fill:none;"/><text fill="#000000" font-family="sans-serif" font-size="13.75" lengthAdjust="spacing" textLength="117.5" x="1298.75" y="639.6936">TEXT LoginProvider</text><line style="stroke:#A80036;stroke-width:1.875;" x1="1275" x2="1447.5" y1="647.7148" y2="647.7148"/><ellipse cx="1287.5" cy="661.4648" rx="3.75" ry="3.75" style="stroke:#038048;stroke-width:1.25;fill:none;"/><text fill="#000000" font-family="sans-serif" font-size="13.75" lengthAdjust="spacing" textLength="68.75" x="1298.75" y="666.9885">TEXT Name</text><line style="stroke:#A80036;stroke-width:1.875;" x1="1275" x2="1447.5" y1="675.0098" y2="675.0098"/><ellipse cx="1287.5" cy="688.7598" rx="3.75" ry="3.75" style="stroke:#038048;stroke-width:1.25;fill:none;"/><text fill="#000000" font-family="sans-serif" font-size="13.75" lengthAdjust="spacing" textLength="70" x="1298.75" y="694.2834">TEXT Value</text><!--MD5=[05e8a20ccee5cf3cb399e16dcd93869a]
class AspNetUsers--><rect codeLine="53" fill="#FEFECE" filter="url(#f1v54z9rmlq7dv)" height="449.4238" id="AspNetUsers" style="stroke:#A80036;stroke-width:1.875;" width="233.75" x="518.125" y="402.5"/><ellipse cx="583.4375" cy="422.5" fill="#ADD1B2" rx="13.75" ry="13.75" style="stroke:#A80036;stroke-width:1.25;"/><path d="M585.9375,418.125 Q586.1914,417.5 586.4844,417.1875 Q586.7773,416.875 587.1094,416.875 Q587.6953,416.875 588.0664,417.2266 Q588.4375,417.5781 588.4375,418.3984 L588.4375,420.3516 Q588.4375,421.1719 588.0859,421.5234 Q587.7344,421.875 587.1875,421.875 Q586.6992,421.875 586.3867,421.6602 Q586.0742,421.4453 585.9375,420.8789 Q585.8789,420.4883 585.6641,420.2734 Q585.2734,419.8633 584.5703,419.6289 Q583.8672,419.375 583.1641,419.375 Q582.2852,419.375 581.543,419.7266 Q580.8203,420.0781 580.2539,420.8594 Q579.6875,421.6406 579.6875,422.7148 L579.6875,423.8672 Q579.6875,425.1563 580.7422,426.0156 Q581.7969,426.875 583.6719,426.875 Q584.7852,426.875 585.5664,426.6211 Q586.0156,426.4844 586.5234,426.0352 Q586.8555,425.7813 587.0313,425.7031 Q587.207,425.625 587.4219,425.625 Q587.832,425.625 588.125,425.957 Q588.4375,426.2695 588.4375,426.7188 Q588.4375,427.1484 588.0078,427.6563 Q587.3828,428.3984 586.3867,428.8086 Q585.0781,429.375 583.4766,429.375 Q581.6016,429.375 580.0977,428.6328 Q578.8867,428.0469 578.0273,426.7773 Q577.1875,425.5078 577.1875,424.0039 L577.1875,422.6367 Q577.1875,421.0742 577.9297,419.707 Q578.6914,418.3398 580,417.6172 Q581.3281,416.875 582.8125,416.875 Q583.7109,416.875 584.4922,417.1875 Q585.2734,417.5 585.9375,418.125 Z " fill="#000000"/><text fill="#000000" font-family="sans-serif" font-size="15" lengthAdjust="spacing" textLength="92.5" x="609.0625" y="428.6377">AspNetUsers</text><line style="stroke:#A80036;stroke-width:1.875;" x1="519.375" x2="750.625" y1="442.5" y2="442.5"/><ellipse cx="531.875" cy="456.25" rx="3.75" ry="3.75" style="stroke:#038048;stroke-width:1.25;fill:none;"/><text fill="#000000" font-family="sans-serif" font-size="13.75" lengthAdjust="spacing" textLength="31.25" x="543.125" y="461.7737">TEXT</text><text fill="#000000" font-family="sans-serif" font-size="13.75" lengthAdjust="spacing" text-decoration="underline" textLength="10" x="581.875" y="461.7737">Id</text><line style="stroke:#A80036;stroke-width:1.875;" x1="519.375" x2="750.625" y1="469.7949" y2="469.7949"/><ellipse cx="531.875" cy="483.5449" rx="3.75" ry="3.75" style="stroke:#038048;stroke-width:1.25;fill:none;"/><text fill="#000000" font-family="sans-serif" font-size="13.75" lengthAdjust="spacing" textLength="97.5" x="543.125" y="489.0686">TEXT UserName</text><line style="stroke:#A80036;stroke-width:1.875;" x1="519.375" x2="750.625" y1="497.0898" y2="497.0898"/><ellipse cx="531.875" cy="510.8398" rx="3.75" ry="3.75" style="stroke:#038048;stroke-width:1.25;fill:none;"/><text fill="#000000" font-family="sans-serif" font-size="13.75" lengthAdjust="spacing" textLength="163.75" x="543.125" y="516.3635">TEXT NormalizedUserName</text><line style="stroke:#A80036;stroke-width:1.875;" x1="519.375" x2="750.625" y1="524.3848" y2="524.3848"/><ellipse cx="531.875" cy="538.1348" rx="3.75" ry="3.75" style="stroke:#038048;stroke-width:1.25;fill:none;"/><text fill="#000000" font-family="sans-serif" font-size="13.75" lengthAdjust="spacing" textLength="65" x="543.125" y="543.6584">TEXT Email</text><line style="stroke:#A80036;stroke-width:1.875;" x1="519.375" x2="750.625" y1="551.6797" y2="551.6797"/><ellipse cx="531.875" cy="565.4297" rx="3.75" ry="3.75" style="stroke:#038048;stroke-width:1.25;fill:none;"/><text fill="#000000" font-family="sans-serif" font-size="13.75" lengthAdjust="spacing" textLength="131.25" x="543.125" y="570.9534">TEXT NormalizedEmail</text><line style="stroke:#A80036;stroke-width:1.875;" x1="519.375" x2="750.625" y1="578.9746" y2="578.9746"/><ellipse cx="531.875" cy="592.7246" rx="3.75" ry="3.75" style="stroke:#038048;stroke-width:1.25;fill:none;"/><text fill="#000000" font-family="sans-serif" font-size="13.75" lengthAdjust="spacing" textLength="147.5" x="543.125" y="598.2483">INTEGER EmailConfirmed</text><line style="stroke:#A80036;stroke-width:1.875;" x1="519.375" x2="750.625" y1="606.2695" y2="606.2695"/><ellipse cx="531.875" cy="620.0195" rx="3.75" ry="3.75" style="stroke:#038048;stroke-width:1.25;fill:none;"/><text fill="#000000" font-family="sans-serif" font-size="13.75" lengthAdjust="spacing" textLength="128.75" x="543.125" y="625.5432">TEXT PasswordHash</text><line style="stroke:#A80036;stroke-width:1.875;" x1="519.375" x2="750.625" y1="633.5645" y2="633.5645"/><ellipse cx="531.875" cy="647.3145" rx="3.75" ry="3.75" style="stroke:#038048;stroke-width:1.25;fill:none;"/><text fill="#000000" font-family="sans-serif" font-size="13.75" lengthAdjust="spacing" textLength="122.5" x="543.125" y="652.8381">TEXT SecurityStamp</text><line style="stroke:#A80036;stroke-width:1.875;" x1="519.375" x2="750.625" y1="660.8594" y2="660.8594"/><ellipse cx="531.875" cy="674.6094" rx="3.75" ry="3.75" style="stroke:#038048;stroke-width:1.25;fill:none;"/><text fill="#000000" font-family="sans-serif" font-size="13.75" lengthAdjust="spacing" textLength="151.25" x="543.125" y="680.1331">TEXT ConcurrencyStamp</text><line style="stroke:#A80036;stroke-width:1.875;" x1="519.375" x2="750.625" y1="688.1543" y2="688.1543"/><ellipse cx="531.875" cy="701.9043" rx="3.75" ry="3.75" style="stroke:#038048;stroke-width:1.25;fill:none;"/><text fill="#000000" font-family="sans-serif" font-size="13.75" lengthAdjust="spacing" textLength="118.75" x="543.125" y="707.428">TEXT PhoneNumber</text><line style="stroke:#A80036;stroke-width:1.875;" x1="519.375" x2="750.625" y1="715.4492" y2="715.4492"/><ellipse cx="531.875" cy="729.1992" rx="3.75" ry="3.75" style="stroke:#038048;stroke-width:1.25;fill:none;"/><text fill="#000000" font-family="sans-serif" font-size="13.75" lengthAdjust="spacing" textLength="201.25" x="543.125" y="734.7229">INTEGER PhoneNumberConfirmed</text><line style="stroke:#A80036;stroke-width:1.875;" x1="519.375" x2="750.625" y1="742.7441" y2="742.7441"/><ellipse cx="531.875" cy="756.4941" rx="3.75" ry="3.75" style="stroke:#038048;stroke-width:1.25;fill:none;"/><text fill="#000000" font-family="sans-serif" font-size="13.75" lengthAdjust="spacing" textLength="170" x="543.125" y="762.0178">INTEGER TwoFactorEnabled</text><line style="stroke:#A80036;stroke-width:1.875;" x1="519.375" x2="750.625" y1="770.0391" y2="770.0391"/><ellipse cx="531.875" cy="783.7891" rx="3.75" ry="3.75" style="stroke:#038048;stroke-width:1.25;fill:none;"/><text fill="#000000" font-family="sans-serif" font-size="13.75" lengthAdjust="spacing" textLength="105" x="543.125" y="789.3127">TEXT LockoutEnd</text><line style="stroke:#A80036;stroke-width:1.875;" x1="519.375" x2="750.625" y1="797.334" y2="797.334"/><ellipse cx="531.875" cy="811.084" rx="3.75" ry="3.75" style="stroke:#038048;stroke-width:1.25;fill:none;"/><text fill="#000000" font-family="sans-serif" font-size="13.75" lengthAdjust="spacing" textLength="151.25" x="543.125" y="816.6077">INTEGER LockoutEnabled</text><line style="stroke:#A80036;stroke-width:1.875;" x1="519.375" x2="750.625" y1="824.6289" y2="824.6289"/><ellipse cx="531.875" cy="838.3789" rx="3.75" ry="3.75" style="stroke:#038048;stroke-width:1.25;fill:none;"/><text fill="#000000" font-family="sans-serif" font-size="13.75" lengthAdjust="spacing" textLength="173.75" x="543.125" y="843.9026">INTEGER AccessFailedCount</text><!--MD5=[c80ce37059b9ac1cdaedc72220576c90]
class Clubs--><rect codeLine="84" fill="#FEFECE" filter="url(#f1v54z9rmlq7dv)" height="94.5898" id="Clubs" style="stroke:#A80036;stroke-width:1.875;" width="130" x="570" y="8.75"/><ellipse cx="610.6875" cy="28.75" fill="#ADD1B2" rx="13.75" ry="13.75" style="stroke:#A80036;stroke-width:1.25;"/><path d="M613.1875,24.375 Q613.4414,23.75 613.7344,23.4375 Q614.0273,23.125 614.3594,23.125 Q614.9453,23.125 615.3164,23.4766 Q615.6875,23.8281 615.6875,24.6484 L615.6875,26.6016 Q615.6875,27.4219 615.3359,27.7734 Q614.9844,28.125 614.4375,28.125 Q613.9492,28.125 613.6367,27.9102 Q613.3242,27.6953 613.1875,27.1289 Q613.1289,26.7383 612.9141,26.5234 Q612.5234,26.1133 611.8203,25.8789 Q611.1172,25.625 610.4141,25.625 Q609.5352,25.625 608.793,25.9766 Q608.0703,26.3281 607.5039,27.1094 Q606.9375,27.8906 606.9375,28.9648 L606.9375,30.1172 Q606.9375,31.4063 607.9922,32.2656 Q609.0469,33.125 610.9219,33.125 Q612.0352,33.125 612.8164,32.8711 Q613.2656,32.7344 613.7734,32.2852 Q614.1055,32.0313 614.2813,31.9531 Q614.457,31.875 614.6719,31.875 Q615.082,31.875 615.375,32.207 Q615.6875,32.5195 615.6875,32.9688 Q615.6875,33.3984 615.2578,33.9063 Q614.6328,34.6484 613.6367,35.0586 Q612.3281,35.625 610.7266,35.625 Q608.8516,35.625 607.3477,34.8828 Q606.1367,34.2969 605.2773,33.0273 Q604.4375,31.7578 604.4375,30.2539 L604.4375,28.8867 Q604.4375,27.3242 605.1797,25.957 Q605.9414,24.5898 607.25,23.8672 Q608.5781,23.125 610.0625,23.125 Q610.9609,23.125 611.7422,23.4375 Q612.5234,23.75 613.1875,24.375 Z " fill="#000000"/><text fill="#000000" font-family="sans-serif" font-size="15" lengthAdjust="spacing" textLength="41.25" x="633.0625" y="34.8877">Clubs</text><line style="stroke:#A80036;stroke-width:1.875;" x1="571.25" x2="698.75" y1="48.75" y2="48.75"/><ellipse cx="583.75" cy="62.5" rx="3.75" ry="3.75" style="stroke:#038048;stroke-width:1.25;fill:none;"/><text fill="#000000" font-family="sans-serif" font-size="13.75" lengthAdjust="spacing" textLength="52.5" x="595" y="68.0237">INTEGER</text><text fill="#000000" font-family="sans-serif" font-size="13.75" lengthAdjust="spacing" text-decoration="underline" textLength="37.5" x="655" y="68.0237">ClubID</text><line style="stroke:#A80036;stroke-width:1.875;" x1="571.25" x2="698.75" y1="76.0449" y2="76.0449"/><ellipse cx="583.75" cy="89.7949" rx="3.75" ry="3.75" style="stroke:#038048;stroke-width:1.25;fill:none;"/><text fill="#000000" font-family="sans-serif" font-size="13.75" lengthAdjust="spacing" textLength="58.75" x="595" y="95.3186">TEXT Title</text><!--MD5=[6921be5be463eb49fd172588710ec7b4]
class Questions--><rect codeLine="89" fill="#FEFECE" filter="url(#f1v54z9rmlq7dv)" height="121.8848" id="Questions" style="stroke:#A80036;stroke-width:1.875;" width="157.5" x="1072.5" y="566.25"/><ellipse cx="1112.0625" cy="586.25" fill="#ADD1B2" rx="13.75" ry="13.75" style="stroke:#A80036;stroke-width:1.25;"/><path d="M1114.5625,581.875 Q1114.8164,581.25 1115.1094,580.9375 Q1115.4023,580.625 1115.7344,580.625 Q1116.3203,580.625 1116.6914,580.9766 Q1117.0625,581.3281 1117.0625,582.1484 L1117.0625,584.1016 Q1117.0625,584.9219 1116.7109,585.2734 Q1116.3594,585.625 1115.8125,585.625 Q1115.3242,585.625 1115.0117,585.4102 Q1114.6992,585.1953 1114.5625,584.6289 Q1114.5039,584.2383 1114.2891,584.0234 Q1113.8984,583.6133 1113.1953,583.3789 Q1112.4922,583.125 1111.7891,583.125 Q1110.9102,583.125 1110.168,583.4766 Q1109.4453,583.8281 1108.8789,584.6094 Q1108.3125,585.3906 1108.3125,586.4648 L1108.3125,587.6172 Q1108.3125,588.9063 1109.3672,589.7656 Q1110.4219,590.625 1112.2969,590.625 Q1113.4102,590.625 1114.1914,590.3711 Q1114.6406,590.2344 1115.1484,589.7852 Q1115.4805,589.5313 1115.6563,589.4531 Q1115.832,589.375 1116.0469,589.375 Q1116.457,589.375 1116.75,589.707 Q1117.0625,590.0195 1117.0625,590.4688 Q1117.0625,590.8984 1116.6328,591.4063 Q1116.0078,592.1484 1115.0117,592.5586 Q1113.7031,593.125 1112.1016,593.125 Q1110.2266,593.125 1108.7227,592.3828 Q1107.5117,591.7969 1106.6523,590.5273 Q1105.8125,589.2578 1105.8125,587.7539 L1105.8125,586.3867 Q1105.8125,584.8242 1106.5547,583.457 Q1107.3164,582.0898 1108.625,581.3672 Q1109.9531,580.625 1111.4375,580.625 Q1112.3359,580.625 1113.1172,580.9375 Q1113.8984,581.25 1114.5625,581.875 Z " fill="#000000"/><text fill="#000000" font-family="sans-serif" font-size="15" lengthAdjust="spacing" textLength="71.25" x="1134.1875" y="592.3877">Questions</text><line style="stroke:#A80036;stroke-width:1.875;" x1="1073.75" x2="1228.75" y1="606.25" y2="606.25"/><ellipse cx="1086.25" cy="620" rx="3.75" ry="3.75" style="stroke:#038048;stroke-width:1.25;fill:none;"/><text fill="#000000" font-family="sans-serif" font-size="13.75" lengthAdjust="spacing" textLength="52.5" x="1097.5" y="625.5237">INTEGER</text><text fill="#000000" font-family="sans-serif" font-size="13.75" lengthAdjust="spacing" text-decoration="underline" textLength="65" x="1157.5" y="625.5237">QuestionID</text><line style="stroke:#A80036;stroke-width:1.875;" x1="1073.75" x2="1228.75" y1="633.5449" y2="633.5449"/><ellipse cx="1086.25" cy="647.2949" rx="3.75" ry="3.75" style="stroke:#038048;stroke-width:1.25;fill:none;"/><text fill="#000000" font-family="sans-serif" font-size="13.75" lengthAdjust="spacing" textLength="61.25" x="1097.5" y="652.8186">TEXT Text</text><line style="stroke:#A80036;stroke-width:1.875;" x1="1073.75" x2="1228.75" y1="660.8398" y2="660.8398"/><ellipse cx="1086.25" cy="674.5898" rx="3.75" ry="3.75" style="stroke:#038048;stroke-width:1.25;fill:none;"/><text fill="#000000" font-family="sans-serif" font-size="13.75" lengthAdjust="spacing" textLength="117.5" x="1097.5" y="680.1135">INTEGER SubClubID</text><!--MD5=[ee858c39f14418d66846326f246f6844]
class SubClubs--><rect codeLine="96" fill="#FEFECE" filter="url(#f1v54z9rmlq7dv)" height="149.1797" id="SubClubs" style="stroke:#A80036;stroke-width:1.875;" width="153.75" x="558.125" y="178.75"/><ellipse cx="597.125" cy="198.75" fill="#ADD1B2" rx="13.75" ry="13.75" style="stroke:#A80036;stroke-width:1.25;"/><path d="M599.625,194.375 Q599.8789,193.75 600.1719,193.4375 Q600.4648,193.125 600.7969,193.125 Q601.3828,193.125 601.7539,193.4766 Q602.125,193.8281 602.125,194.6484 L602.125,196.6016 Q602.125,197.4219 601.7734,197.7734 Q601.4219,198.125 600.875,198.125 Q600.3867,198.125 600.0742,197.9102 Q599.7617,197.6953 599.625,197.1289 Q599.5664,196.7383 599.3516,196.5234 Q598.9609,196.1133 598.2578,195.8789 Q597.5547,195.625 596.8516,195.625 Q595.9727,195.625 595.2305,195.9766 Q594.5078,196.3281 593.9414,197.1094 Q593.375,197.8906 593.375,198.9648 L593.375,200.1172 Q593.375,201.4063 594.4297,202.2656 Q595.4844,203.125 597.3594,203.125 Q598.4727,203.125 599.2539,202.8711 Q599.7031,202.7344 600.2109,202.2852 Q600.543,202.0313 600.7188,201.9531 Q600.8945,201.875 601.1094,201.875 Q601.5195,201.875 601.8125,202.207 Q602.125,202.5195 602.125,202.9688 Q602.125,203.3984 601.6953,203.9063 Q601.0703,204.6484 600.0742,205.0586 Q598.7656,205.625 597.1641,205.625 Q595.2891,205.625 593.7852,204.8828 Q592.5742,204.2969 591.7148,203.0273 Q590.875,201.7578 590.875,200.2539 L590.875,198.8867 Q590.875,197.3242 591.6172,195.957 Q592.3789,194.5898 593.6875,193.8672 Q595.0156,193.125 596.5,193.125 Q597.3984,193.125 598.1797,193.4375 Q598.9609,193.75 599.625,194.375 Z " fill="#000000"/><text fill="#000000" font-family="sans-serif" font-size="15" lengthAdjust="spacing" textLength="68.75" x="619.125" y="204.8877">SubClubs</text><line style="stroke:#A80036;stroke-width:1.875;" x1="559.375" x2="710.625" y1="218.75" y2="218.75"/><ellipse cx="571.875" cy="232.5" rx="3.75" ry="3.75" style="stroke:#038048;stroke-width:1.25;fill:none;"/><text fill="#000000" font-family="sans-serif" font-size="13.75" lengthAdjust="spacing" textLength="52.5" x="583.125" y="238.0237">INTEGER</text><text fill="#000000" font-family="sans-serif" font-size="13.75" lengthAdjust="spacing" text-decoration="underline" textLength="61.25" x="643.125" y="238.0237">SubClubID</text><line style="stroke:#A80036;stroke-width:1.875;" x1="559.375" x2="710.625" y1="246.0449" y2="246.0449"/><ellipse cx="571.875" cy="259.7949" rx="3.75" ry="3.75" style="stroke:#038048;stroke-width:1.25;fill:none;"/><text fill="#000000" font-family="sans-serif" font-size="13.75" lengthAdjust="spacing" textLength="58.75" x="583.125" y="265.3186">TEXT Title</text><line style="stroke:#A80036;stroke-width:1.875;" x1="559.375" x2="710.625" y1="273.3398" y2="273.3398"/><ellipse cx="571.875" cy="287.0898" rx="3.75" ry="3.75" style="stroke:#038048;stroke-width:1.25;fill:none;"/><text fill="#000000" font-family="sans-serif" font-size="13.75" lengthAdjust="spacing" textLength="86.25" x="583.125" y="292.6135">TEXT ImageUrl</text><line style="stroke:#A80036;stroke-width:1.875;" x1="559.375" x2="710.625" y1="300.6348" y2="300.6348"/><ellipse cx="571.875" cy="314.3848" rx="3.75" ry="3.75" style="stroke:#038048;stroke-width:1.25;fill:none;"/><text fill="#000000" font-family="sans-serif" font-size="13.75" lengthAdjust="spacing" textLength="93.75" x="583.125" y="319.9084">INTEGER ClubID</text><!--MD5=[195fcc4c8e3cdd178587e736426d8f66]
class Choices--><rect codeLine="105" fill="#FEFECE" filter="url(#f1v54z9rmlq7dv)" height="94.5898" id="Choices" style="stroke:#A80036;stroke-width:1.875;" width="103.75" x="1276.875" y="954.375"/><ellipse cx="1298.4375" cy="974.375" fill="#ADD1B2" rx="13.75" ry="13.75" style="stroke:#A80036;stroke-width:1.25;"/><path d="M1300.9375,970 Q1301.1914,969.375 1301.4844,969.0625 Q1301.7773,968.75 1302.1094,968.75 Q1302.6953,968.75 1303.0664,969.1016 Q1303.4375,969.4531 1303.4375,970.2734 L1303.4375,972.2266 Q1303.4375,973.0469 1303.0859,973.3984 Q1302.7344,973.75 1302.1875,973.75 Q1301.6992,973.75 1301.3867,973.5352 Q1301.0742,973.3203 1300.9375,972.7539 Q1300.8789,972.3633 1300.6641,972.1484 Q1300.2734,971.7383 1299.5703,971.5039 Q1298.8672,971.25 1298.1641,971.25 Q1297.2852,971.25 1296.543,971.6016 Q1295.8203,971.9531 1295.2539,972.7344 Q1294.6875,973.5156 1294.6875,974.5898 L1294.6875,975.7422 Q1294.6875,977.0313 1295.7422,977.8906 Q1296.7969,978.75 1298.6719,978.75 Q1299.7852,978.75 1300.5664,978.4961 Q1301.0156,978.3594 1301.5234,977.9102 Q1301.8555,977.6563 1302.0313,977.5781 Q1302.207,977.5 1302.4219,977.5 Q1302.832,977.5 1303.125,977.832 Q1303.4375,978.1445 1303.4375,978.5938 Q1303.4375,979.0234 1303.0078,979.5313 Q1302.3828,980.2734 1301.3867,980.6836 Q1300.0781,981.25 1298.4766,981.25 Q1296.6016,981.25 1295.0977,980.5078 Q1293.8867,979.9219 1293.0273,978.6523 Q1292.1875,977.3828 1292.1875,975.8789 L1292.1875,974.5117 Q1292.1875,972.9492 1292.9297,971.582 Q1293.6914,970.2148 1295,969.4922 Q1296.3281,968.75 1297.8125,968.75 Q1298.7109,968.75 1299.4922,969.0625 Q1300.2734,969.375 1300.9375,970 Z " fill="#000000"/><text fill="#000000" font-family="sans-serif" font-size="15" lengthAdjust="spacing" textLength="57.5" x="1316.5625" y="980.5127">Choices</text><line style="stroke:#A80036;stroke-width:1.875;" x1="1278.125" x2="1379.375" y1="994.375" y2="994.375"/><ellipse cx="1290.625" cy="1008.125" rx="3.75" ry="3.75" style="stroke:#038048;stroke-width:1.25;fill:none;"/><text fill="#000000" font-family="sans-serif" font-size="13.75" lengthAdjust="spacing" textLength="52.5" x="1301.875" y="1013.6487">INTEGER</text><text fill="#000000" font-family="sans-serif" font-size="13.75" lengthAdjust="spacing" text-decoration="underline" textLength="11.25" x="1361.875" y="1013.6487">ID</text><line style="stroke:#A80036;stroke-width:1.875;" x1="1278.125" x2="1379.375" y1="1021.6699" y2="1021.6699"/><ellipse cx="1290.625" cy="1035.4199" rx="3.75" ry="3.75" style="stroke:#038048;stroke-width:1.25;fill:none;"/><text fill="#000000" font-family="sans-serif" font-size="13.75" lengthAdjust="spacing" textLength="61.25" x="1301.875" y="1040.9436">TEXT Text</text><!--MD5=[23c36fc606ecca509e72b72b37848a12]
class Posts--><rect codeLine="110" fill="#FEFECE" filter="url(#f1v54z9rmlq7dv)" height="121.8848" id="Posts" style="stroke:#A80036;stroke-width:1.875;" width="228.75" x="138.125" y="940.625"/><ellipse cx="227.1875" cy="960.625" fill="#ADD1B2" rx="13.75" ry="13.75" style="stroke:#A80036;stroke-width:1.25;"/><path d="M229.6875,956.25 Q229.9414,955.625 230.2344,955.3125 Q230.5273,955 230.8594,955 Q231.4453,955 231.8164,955.3516 Q232.1875,955.7031 232.1875,956.5234 L232.1875,958.4766 Q232.1875,959.2969 231.8359,959.6484 Q231.4844,960 230.9375,960 Q230.4492,960 230.1367,959.7852 Q229.8242,959.5703 229.6875,959.0039 Q229.6289,958.6133 229.4141,958.3984 Q229.0234,957.9883 228.3203,957.7539 Q227.6172,957.5 226.9141,957.5 Q226.0352,957.5 225.293,957.8516 Q224.5703,958.2031 224.0039,958.9844 Q223.4375,959.7656 223.4375,960.8398 L223.4375,961.9922 Q223.4375,963.2813 224.4922,964.1406 Q225.5469,965 227.4219,965 Q228.5352,965 229.3164,964.7461 Q229.7656,964.6094 230.2734,964.1602 Q230.6055,963.9063 230.7813,963.8281 Q230.957,963.75 231.1719,963.75 Q231.582,963.75 231.875,964.082 Q232.1875,964.3945 232.1875,964.8438 Q232.1875,965.2734 231.7578,965.7813 Q231.1328,966.5234 230.1367,966.9336 Q228.8281,967.5 227.2266,967.5 Q225.3516,967.5 223.8477,966.7578 Q222.6367,966.1719 221.7773,964.9023 Q220.9375,963.6328 220.9375,962.1289 L220.9375,960.7617 Q220.9375,959.1992 221.6797,957.832 Q222.4414,956.4648 223.75,955.7422 Q225.0781,955 226.5625,955 Q227.4609,955 228.2422,955.3125 Q229.0234,955.625 229.6875,956.25 Z " fill="#000000"/><text fill="#000000" font-family="sans-serif" font-size="15" lengthAdjust="spacing" textLength="40" x="252.8125" y="966.7627">Posts</text><line style="stroke:#A80036;stroke-width:1.875;" x1="139.375" x2="365.625" y1="980.625" y2="980.625"/><ellipse cx="151.875" cy="994.375" rx="3.75" ry="3.75" style="stroke:#038048;stroke-width:1.25;fill:none;"/><text fill="#000000" font-family="sans-serif" font-size="13.75" lengthAdjust="spacing" textLength="52.5" x="163.125" y="999.8987">INTEGER</text><text fill="#000000" font-family="sans-serif" font-size="13.75" lengthAdjust="spacing" text-decoration="underline" textLength="37.5" x="223.125" y="999.8987">PostID</text><line style="stroke:#A80036;stroke-width:1.875;" x1="139.375" x2="365.625" y1="1007.9199" y2="1007.9199"/><ellipse cx="151.875" cy="1021.6699" rx="3.75" ry="3.75" style="stroke:#038048;stroke-width:1.25;fill:none;"/><text fill="#000000" font-family="sans-serif" font-size="13.75" lengthAdjust="spacing" textLength="106.25" x="163.125" y="1027.1936">TEXT PostSection</text><line style="stroke:#A80036;stroke-width:1.875;" x1="139.375" x2="365.625" y1="1035.2148" y2="1035.2148"/><ellipse cx="151.875" cy="1048.9648" rx="3.75" ry="3.75" style="stroke:#038048;stroke-width:1.25;fill:none;"/><text fill="#000000" font-family="sans-serif" font-size="13.75" lengthAdjust="spacing" textLength="196.25" x="163.125" y="1054.4885">ICollection&lt;Comment&gt; Comments</text><!--MD5=[742b1196bbba6f0e61b130a5588ff6eb]
class Comments--><rect codeLine="117" fill="#FEFECE" filter="url(#f1v54z9rmlq7dv)" height="94.5898" id="Comments" style="stroke:#A80036;stroke-width:1.875;" width="157.5" x="173.75" y="1151.25"/><ellipse cx="210.5" cy="1171.25" fill="#ADD1B2" rx="13.75" ry="13.75" style="stroke:#A80036;stroke-width:1.25;"/><path d="M213,1166.875 Q213.2539,1166.25 213.5469,1165.9375 Q213.8398,1165.625 214.1719,1165.625 Q214.7578,1165.625 215.1289,1165.9766 Q215.5,1166.3281 215.5,1167.1484 L215.5,1169.1016 Q215.5,1169.9219 215.1484,1170.2734 Q214.7969,1170.625 214.25,1170.625 Q213.7617,1170.625 213.4492,1170.4102 Q213.1367,1170.1953 213,1169.6289 Q212.9414,1169.2383 212.7266,1169.0234 Q212.3359,1168.6133 211.6328,1168.3789 Q210.9297,1168.125 210.2266,1168.125 Q209.3477,1168.125 208.6055,1168.4766 Q207.8828,1168.8281 207.3164,1169.6094 Q206.75,1170.3906 206.75,1171.4648 L206.75,1172.6172 Q206.75,1173.9063 207.8047,1174.7656 Q208.8594,1175.625 210.7344,1175.625 Q211.8477,1175.625 212.6289,1175.3711 Q213.0781,1175.2344 213.5859,1174.7852 Q213.918,1174.5313 214.0938,1174.4531 Q214.2695,1174.375 214.4844,1174.375 Q214.8945,1174.375 215.1875,1174.707 Q215.5,1175.0195 215.5,1175.4688 Q215.5,1175.8984 215.0703,1176.4063 Q214.4453,1177.1484 213.4492,1177.5586 Q212.1406,1178.125 210.5391,1178.125 Q208.6641,1178.125 207.1602,1177.3828 Q205.9492,1176.7969 205.0898,1175.5273 Q204.25,1174.2578 204.25,1172.7539 L204.25,1171.3867 Q204.25,1169.8242 204.9922,1168.457 Q205.7539,1167.0898 207.0625,1166.3672 Q208.3906,1165.625 209.875,1165.625 Q210.7734,1165.625 211.5547,1165.9375 Q212.3359,1166.25 213,1166.875 Z " fill="#000000"/><text fill="#000000" font-family="sans-serif" font-size="15" lengthAdjust="spacing" textLength="77.5" x="232" y="1177.3877">Comments</text><line style="stroke:#A80036;stroke-width:1.875;" x1="175" x2="330" y1="1191.25" y2="1191.25"/><ellipse cx="187.5" cy="1205" rx="3.75" ry="3.75" style="stroke:#038048;stroke-width:1.25;fill:none;"/><text fill="#000000" font-family="sans-serif" font-size="13.75" lengthAdjust="spacing" textLength="52.5" x="198.75" y="1210.5237">INTEGER</text><text fill="#000000" font-family="sans-serif" font-size="13.75" lengthAdjust="spacing" text-decoration="underline" textLength="66.25" x="255" y="1210.5237">CommentID</text><line style="stroke:#A80036;stroke-width:1.875;" x1="175" x2="330" y1="1218.5449" y2="1218.5449"/><ellipse cx="187.5" cy="1232.2949" rx="3.75" ry="3.75" style="stroke:#038048;stroke-width:1.25;fill:none;"/><text fill="#000000" font-family="sans-serif" font-size="13.75" lengthAdjust="spacing" textLength="125" x="198.75" y="1237.8186">TEXT CommentString</text><!--MD5=[55d4ff87441f71cb92c304f4365a4235]
class Events--><rect codeLine="123" fill="#FEFECE" filter="url(#f1v54z9rmlq7dv)" height="203.7695" id="Events" style="stroke:#A80036;stroke-width:1.875;" width="143.75" x="795.625" y="525.625"/><ellipse cx="840.25" cy="545.625" fill="#ADD1B2" rx="13.75" ry="13.75" style="stroke:#A80036;stroke-width:1.25;"/><path d="M842.75,541.25 Q843.0039,540.625 843.2969,540.3125 Q843.5898,540 843.9219,540 Q844.5078,540 844.8789,540.3516 Q845.25,540.7031 845.25,541.5234 L845.25,543.4766 Q845.25,544.2969 844.8984,544.6484 Q844.5469,545 844,545 Q843.5117,545 843.1992,544.7852 Q842.8867,544.5703 842.75,544.0039 Q842.6914,543.6133 842.4766,543.3984 Q842.0859,542.9883 841.3828,542.7539 Q840.6797,542.5 839.9766,542.5 Q839.0977,542.5 838.3555,542.8516 Q837.6328,543.2031 837.0664,543.9844 Q836.5,544.7656 836.5,545.8398 L836.5,546.9922 Q836.5,548.2813 837.5547,549.1406 Q838.6094,550 840.4844,550 Q841.5977,550 842.3789,549.7461 Q842.8281,549.6094 843.3359,549.1602 Q843.668,548.9063 843.8438,548.8281 Q844.0195,548.75 844.2344,548.75 Q844.6445,548.75 844.9375,549.082 Q845.25,549.3945 845.25,549.8438 Q845.25,550.2734 844.8203,550.7813 Q844.1953,551.5234 843.1992,551.9336 Q841.8906,552.5 840.2891,552.5 Q838.4141,552.5 836.9102,551.7578 Q835.6992,551.1719 834.8398,549.9023 Q834,548.6328 834,547.1289 L834,545.7617 Q834,544.1992 834.7422,542.832 Q835.5039,541.4648 836.8125,540.7422 Q838.1406,540 839.625,540 Q840.5234,540 841.3047,540.3125 Q842.0859,540.625 842.75,541.25 Z " fill="#000000"/><text fill="#000000" font-family="sans-serif" font-size="15" lengthAdjust="spacing" textLength="46.25" x="863.5" y="551.7627">Events</text><line style="stroke:#A80036;stroke-width:1.875;" x1="796.875" x2="938.125" y1="565.625" y2="565.625"/><ellipse cx="809.375" cy="579.375" rx="3.75" ry="3.75" style="stroke:#038048;stroke-width:1.25;fill:none;"/><text fill="#000000" font-family="sans-serif" font-size="13.75" lengthAdjust="spacing" textLength="52.5" x="820.625" y="584.8987">INTEGER</text><text fill="#000000" font-family="sans-serif" font-size="13.75" lengthAdjust="spacing" text-decoration="underline" textLength="45" x="876.875" y="584.8987">EventID</text><line style="stroke:#A80036;stroke-width:1.875;" x1="796.875" x2="938.125" y1="592.9199" y2="592.9199"/><ellipse cx="809.375" cy="606.6699" rx="3.75" ry="3.75" style="stroke:#038048;stroke-width:1.25;fill:none;"/><text fill="#000000" font-family="sans-serif" font-size="13.75" lengthAdjust="spacing" textLength="65" x="820.625" y="612.1936">TEXT Type</text><line style="stroke:#A80036;stroke-width:1.875;" x1="796.875" x2="938.125" y1="620.2148" y2="620.2148"/><ellipse cx="809.375" cy="633.9648" rx="3.75" ry="3.75" style="stroke:#038048;stroke-width:1.25;fill:none;"/><text fill="#000000" font-family="sans-serif" font-size="13.75" lengthAdjust="spacing" textLength="80" x="820.625" y="639.4885">TEXT Subject</text><line style="stroke:#A80036;stroke-width:1.875;" x1="796.875" x2="938.125" y1="647.5098" y2="647.5098"/><ellipse cx="809.375" cy="661.2598" rx="3.75" ry="3.75" style="stroke:#038048;stroke-width:1.25;fill:none;"/><text fill="#000000" font-family="sans-serif" font-size="13.75" lengthAdjust="spacing" textLength="62.5" x="820.625" y="666.7834">TEXT Date</text><line style="stroke:#A80036;stroke-width:1.875;" x1="796.875" x2="938.125" y1="674.8047" y2="674.8047"/><ellipse cx="809.375" cy="688.5547" rx="3.75" ry="3.75" style="stroke:#038048;stroke-width:1.25;fill:none;"/><text fill="#000000" font-family="sans-serif" font-size="13.75" lengthAdjust="spacing" textLength="83.75" x="820.625" y="694.0784">TEXT Platform</text><line style="stroke:#A80036;stroke-width:1.875;" x1="796.875" x2="938.125" y1="702.0996" y2="702.0996"/><ellipse cx="809.375" cy="715.8496" rx="3.75" ry="3.75" style="stroke:#038048;stroke-width:1.25;fill:none;"/><text fill="#000000" font-family="sans-serif" font-size="13.75" lengthAdjust="spacing" textLength="111.25" x="820.625" y="721.3733">TEXT InvitationLink</text><!--MD5=[045a0df89681e765729dc21a32c93fe4]
class ReviewAndRates--><rect codeLine="137" fill="#FEFECE" filter="url(#f1v54z9rmlq7dv)" height="121.8848" id="ReviewAndRates" style="stroke:#A80036;stroke-width:1.875;" width="157.5" x="8.75" y="566.25"/><ellipse cx="27.5" cy="586.25" fill="#ADD1B2" rx="13.75" ry="13.75" style="stroke:#A80036;stroke-width:1.25;"/><path d="M30,581.875 Q30.2539,581.25 30.5469,580.9375 Q30.8398,580.625 31.1719,580.625 Q31.7578,580.625 32.1289,580.9766 Q32.5,581.3281 32.5,582.1484 L32.5,584.1016 Q32.5,584.9219 32.1484,585.2734 Q31.7969,585.625 31.25,585.625 Q30.7617,585.625 30.4492,585.4102 Q30.1367,585.1953 30,584.6289 Q29.9414,584.2383 29.7266,584.0234 Q29.3359,583.6133 28.6328,583.3789 Q27.9297,583.125 27.2266,583.125 Q26.3477,583.125 25.6055,583.4766 Q24.8828,583.8281 24.3164,584.6094 Q23.75,585.3906 23.75,586.4648 L23.75,587.6172 Q23.75,588.9063 24.8047,589.7656 Q25.8594,590.625 27.7344,590.625 Q28.8477,590.625 29.6289,590.3711 Q30.0781,590.2344 30.5859,589.7852 Q30.918,589.5313 31.0938,589.4531 Q31.2695,589.375 31.4844,589.375 Q31.8945,589.375 32.1875,589.707 Q32.5,590.0195 32.5,590.4688 Q32.5,590.8984 32.0703,591.4063 Q31.4453,592.1484 30.4492,592.5586 Q29.1406,593.125 27.5391,593.125 Q25.6641,593.125 24.1602,592.3828 Q22.9492,591.7969 22.0898,590.5273 Q21.25,589.2578 21.25,587.7539 L21.25,586.3867 Q21.25,584.8242 21.9922,583.457 Q22.7539,582.0898 24.0625,581.3672 Q25.3906,580.625 26.875,580.625 Q27.7734,580.625 28.5547,580.9375 Q29.3359,581.25 30,581.875 Z " fill="#000000"/><text fill="#000000" font-family="sans-serif" font-size="15" lengthAdjust="spacing" textLength="117.5" x="45" y="592.3877">ReviewAndRates</text><line style="stroke:#A80036;stroke-width:1.875;" x1="10" x2="165" y1="606.25" y2="606.25"/><ellipse cx="22.5" cy="620" rx="3.75" ry="3.75" style="stroke:#038048;stroke-width:1.25;fill:none;"/><text fill="#000000" font-family="sans-serif" font-size="13.75" lengthAdjust="spacing" textLength="52.5" x="33.75" y="625.5237">INTEGER</text><text fill="#000000" font-family="sans-serif" font-size="13.75" lengthAdjust="spacing" text-decoration="underline" textLength="57.5" x="90" y="625.5237">ReviewID</text><line style="stroke:#A80036;stroke-width:1.875;" x1="10" x2="165" y1="633.5449" y2="633.5449"/><ellipse cx="22.5" cy="647.2949" rx="3.75" ry="3.75" style="stroke:#038048;stroke-width:1.25;fill:none;"/><text fill="#000000" font-family="sans-serif" font-size="13.75" lengthAdjust="spacing" textLength="81.25" x="33.75" y="652.8186">TEXT Review</text><line style="stroke:#A80036;stroke-width:1.875;" x1="10" x2="165" y1="660.8398" y2="660.8398"/><ellipse cx="22.5" cy="674.5898" rx="3.75" ry="3.75" style="stroke:#038048;stroke-width:1.25;fill:none;"/><text fill="#000000" font-family="sans-serif" font-size="13.75" lengthAdjust="spacing" textLength="73.75" x="33.75" y="680.1135">FLOAT Rate</text><!--MD5=[4926c5a35c9f15a37b9ee1244909f72d]
class Reports--><rect codeLine="145" fill="#FEFECE" filter="url(#f1v54z9rmlq7dv)" height="94.5898" id="Reports" style="stroke:#A80036;stroke-width:1.875;" width="175" x="210" y="580"/><ellipse cx="264.75" cy="600" fill="#ADD1B2" rx="13.75" ry="13.75" style="stroke:#A80036;stroke-width:1.25;"/><path d="M267.25,595.625 Q267.5039,595 267.7969,594.6875 Q268.0898,594.375 268.4219,594.375 Q269.0078,594.375 269.3789,594.7266 Q269.75,595.0781 269.75,595.8984 L269.75,597.8516 Q269.75,598.6719 269.3984,599.0234 Q269.0469,599.375 268.5,599.375 Q268.0117,599.375 267.6992,599.1602 Q267.3867,598.9453 267.25,598.3789 Q267.1914,597.9883 266.9766,597.7734 Q266.5859,597.3633 265.8828,597.1289 Q265.1797,596.875 264.4766,596.875 Q263.5977,596.875 262.8555,597.2266 Q262.1328,597.5781 261.5664,598.3594 Q261,599.1406 261,600.2148 L261,601.3672 Q261,602.6563 262.0547,603.5156 Q263.1094,604.375 264.9844,604.375 Q266.0977,604.375 266.8789,604.1211 Q267.3281,603.9844 267.8359,603.5352 Q268.168,603.2813 268.3438,603.2031 Q268.5195,603.125 268.7344,603.125 Q269.1445,603.125 269.4375,603.457 Q269.75,603.7695 269.75,604.2188 Q269.75,604.6484 269.3203,605.1563 Q268.6953,605.8984 267.6992,606.3086 Q266.3906,606.875 264.7891,606.875 Q262.9141,606.875 261.4102,606.1328 Q260.1992,605.5469 259.3398,604.2773 Q258.5,603.0078 258.5,601.5039 L258.5,600.1367 Q258.5,598.5742 259.2422,597.207 Q260.0039,595.8398 261.3125,595.1172 Q262.6406,594.375 264.125,594.375 Q265.0234,594.375 265.8047,594.6875 Q266.5859,595 267.25,595.625 Z " fill="#000000"/><text fill="#000000" font-family="sans-serif" font-size="15" lengthAdjust="spacing" textLength="55" x="290.25" y="606.1377">Reports</text><line style="stroke:#A80036;stroke-width:1.875;" x1="211.25" x2="383.75" y1="620" y2="620"/><ellipse cx="223.75" cy="633.75" rx="3.75" ry="3.75" style="stroke:#038048;stroke-width:1.25;fill:none;"/><text fill="#000000" font-family="sans-serif" font-size="13.75" lengthAdjust="spacing" textLength="52.5" x="235" y="639.2737">INTEGER</text><text fill="#000000" font-family="sans-serif" font-size="13.75" lengthAdjust="spacing" text-decoration="underline" textLength="51.25" x="291.25" y="639.2737">ReportID</text><line style="stroke:#A80036;stroke-width:1.875;" x1="211.25" x2="383.75" y1="647.2949" y2="647.2949"/><ellipse cx="223.75" cy="661.0449" rx="3.75" ry="3.75" style="stroke:#038048;stroke-width:1.25;fill:none;"/><text fill="#000000" font-family="sans-serif" font-size="13.75" lengthAdjust="spacing" textLength="142.5" x="235" y="666.5686">TEXT ReportDescription</text><!--MD5=[0449bf500821de40f65d95a29dcdc373]
class BanRecords--><rect codeLine="151" fill="#FEFECE" filter="url(#f1v54z9rmlq7dv)" height="94.5898" id="BanRecords" style="stroke:#A80036;stroke-width:1.875;" width="167.5" x="1065" y="954.375"/><ellipse cx="1102.3125" cy="974.375" fill="#ADD1B2" rx="13.75" ry="13.75" style="stroke:#A80036;stroke-width:1.25;"/><path d="M1104.8125,970 Q1105.0664,969.375 1105.3594,969.0625 Q1105.6523,968.75 1105.9844,968.75 Q1106.5703,968.75 1106.9414,969.1016 Q1107.3125,969.4531 1107.3125,970.2734 L1107.3125,972.2266 Q1107.3125,973.0469 1106.9609,973.3984 Q1106.6094,973.75 1106.0625,973.75 Q1105.5742,973.75 1105.2617,973.5352 Q1104.9492,973.3203 1104.8125,972.7539 Q1104.7539,972.3633 1104.5391,972.1484 Q1104.1484,971.7383 1103.4453,971.5039 Q1102.7422,971.25 1102.0391,971.25 Q1101.1602,971.25 1100.418,971.6016 Q1099.6953,971.9531 1099.1289,972.7344 Q1098.5625,973.5156 1098.5625,974.5898 L1098.5625,975.7422 Q1098.5625,977.0313 1099.6172,977.8906 Q1100.6719,978.75 1102.5469,978.75 Q1103.6602,978.75 1104.4414,978.4961 Q1104.8906,978.3594 1105.3984,977.9102 Q1105.7305,977.6563 1105.9063,977.5781 Q1106.082,977.5 1106.2969,977.5 Q1106.707,977.5 1107,977.832 Q1107.3125,978.1445 1107.3125,978.5938 Q1107.3125,979.0234 1106.8828,979.5313 Q1106.2578,980.2734 1105.2617,980.6836 Q1103.9531,981.25 1102.3516,981.25 Q1100.4766,981.25 1098.9727,980.5078 Q1097.7617,979.9219 1096.9023,978.6523 Q1096.0625,977.3828 1096.0625,975.8789 L1096.0625,974.5117 Q1096.0625,972.9492 1096.8047,971.582 Q1097.5664,970.2148 1098.875,969.4922 Q1100.2031,968.75 1101.6875,968.75 Q1102.5859,968.75 1103.3672,969.0625 Q1104.1484,969.375 1104.8125,970 Z " fill="#000000"/><text fill="#000000" font-family="sans-serif" font-size="15" lengthAdjust="spacing" textLength="86.25" x="1123.9375" y="980.5127">BanRecords</text><line style="stroke:#A80036;stroke-width:1.875;" x1="1066.25" x2="1231.25" y1="994.375" y2="994.375"/><ellipse cx="1078.75" cy="1008.125" rx="3.75" ry="3.75" style="stroke:#038048;stroke-width:1.25;fill:none;"/><text fill="#000000" font-family="sans-serif" font-size="13.75" lengthAdjust="spacing" textLength="52.5" x="1090" y="1013.6487">INTEGER</text><text fill="#000000" font-family="sans-serif" font-size="13.75" lengthAdjust="spacing" text-decoration="underline" textLength="78.75" x="1146.25" y="1013.6487">BanRecordID</text><line style="stroke:#A80036;stroke-width:1.875;" x1="1066.25" x2="1231.25" y1="1021.6699" y2="1021.6699"/><ellipse cx="1078.75" cy="1035.4199" rx="3.75" ry="3.75" style="stroke:#038048;stroke-width:1.25;fill:none;"/><text fill="#000000" font-family="sans-serif" font-size="13.75" lengthAdjust="spacing" textLength="115" x="1090" y="1040.9436">INTEGER BanCount</text><!--MD5=[6bf60d1f29f5da1e4ff8e895485f25e3]
reverse link Clubs to SubClubs--><path codeLine="157" d="M635,120.1625 C635,120.1625 635,178.6375 635,178.6375 " fill="none" id="Clubs-backto-SubClubs" style="stroke:#A80036;stroke-width:1.25;"/><polygon fill="#A80036" points="635,103.9125,630,111.4125,635,118.9125,640,111.4125,635,103.9125" style="stroke:#A80036;stroke-width:1.25;"/><text fill="#000000" font-family="sans-serif" font-size="16.25" lengthAdjust="spacing" textLength="8.75" x="625.5527" y="130.0391">1</text><text fill="#000000" font-family="sans-serif" font-size="16.25" lengthAdjust="spacing" textLength="40" x="592.5625" y="165.2101">many</text><!--MD5=[50220810b42efa271a3cb16affa34a8f]
reverse link SubClubs to Questions--><path codeLine="158" d="M728.5375,216.25 C728.5375,216.25 1151.25,216.25 1151.25,216.25 C1151.25,216.25 1151.25,451.2125 1151.25,565.9375 " fill="none" id="SubClubs-backto-Questions" style="stroke:#A80036;stroke-width:1.25;"/><polygon fill="#A80036" points="712.2875,216.25,719.7875,221.25,727.2875,216.25,719.7875,211.25,712.2875,216.25" style="stroke:#A80036;stroke-width:1.25;"/><text fill="#000000" font-family="sans-serif" font-size="16.25" lengthAdjust="spacing" textLength="8.75" x="721.7297" y="207.6995">1</text><text fill="#000000" font-family="sans-serif" font-size="16.25" lengthAdjust="spacing" textLength="40" x="1108.4375" y="552.8171">many</text><!--MD5=[112cfc06d040c28320db1b41a5b78173]
reverse link Questions to Choices--><path codeLine="159" d="M1246.2625,627.5 C1246.2625,627.5 1253.125,627.5 1253.125,627.5 C1253.125,627.5 1253.125,1002.5 1253.125,1002.5 C1253.125,1002.5 1263.5375,1002.5 1276.6375,1002.5 " fill="none" id="Questions-backto-Choices" style="stroke:#A80036;stroke-width:1.25;"/><polygon fill="#A80036" points="1230.0125,627.5,1237.5125,632.5,1245.0125,627.5,1237.5125,622.5,1230.0125,627.5" style="stroke:#A80036;stroke-width:1.25;"/><text fill="#000000" font-family="sans-serif" font-size="16.25" lengthAdjust="spacing" textLength="8.75" x="1240.1449" y="623.2144">1</text><text fill="#000000" font-family="sans-serif" font-size="16.25" lengthAdjust="spacing" textLength="40" x="1242.5976" y="996.5481">many</text><!--MD5=[e0acb96700c977780d7c06d1952ef876]
reverse link SubClubs to Posts--><path codeLine="160" d="M541.425,253.75 C541.425,253.75 188.125,253.75 188.125,253.75 C188.125,253.75 188.125,761.375 188.125,940.3375 " fill="none" id="SubClubs-backto-Posts" style="stroke:#A80036;stroke-width:1.25;"/><polygon fill="#A80036" points="557.675,253.75,550.175,248.75,542.675,253.75,550.175,258.75,557.675,253.75" style="stroke:#A80036;stroke-width:1.25;"/><text fill="#000000" font-family="sans-serif" font-size="16.25" lengthAdjust="spacing" textLength="8.75" x="539.4784" y="249.5355">1</text><text fill="#000000" font-family="sans-serif" font-size="16.25" lengthAdjust="spacing" textLength="40" x="136.2598" y="927.2206">many</text><!--MD5=[89dcb3f72b7dbb0050a974a555f94606]
reverse link Posts to Comments--><path codeLine="161" d="M252.5,1079.875 C252.5,1079.875 252.5,1150.9625 252.5,1150.9625 " fill="none" id="Posts-backto-Comments" style="stroke:#A80036;stroke-width:1.25;"/><polygon fill="#A80036" points="252.5,1063.625,247.5,1071.125,252.5,1078.625,257.5,1071.125,252.5,1063.625" style="stroke:#A80036;stroke-width:1.25;"/><text fill="#000000" font-family="sans-serif" font-size="16.25" lengthAdjust="spacing" textLength="8.75" x="243.2168" y="1089.3027">1</text><text fill="#000000" font-family="sans-serif" font-size="16.25" lengthAdjust="spacing" textLength="40" x="208.9375" y="1137.6137">many</text><!--MD5=[9b9e5953400843b214bb9b2d4bb2a0b4]
reverse link AspNetUsers to Posts--><path codeLine="162" d="M537.5,869.0375 C537.5,869.0375 537.5,947.5 537.5,947.5 C537.5,947.5 446.3875,947.5 367.1875,947.5 " fill="none" id="AspNetUsers-backto-Posts" style="stroke:#A80036;stroke-width:1.25;"/><polygon fill="#A80036" points="537.5,852.7875,532.5,860.2875,537.5,867.7875,542.5,860.2875,537.5,852.7875" style="stroke:#A80036;stroke-width:1.25;"/><text fill="#000000" font-family="sans-serif" font-size="16.25" lengthAdjust="spacing" textLength="8.75" x="524.7705" y="878.8672">1</text><text fill="#000000" font-family="sans-serif" font-size="16.25" lengthAdjust="spacing" textLength="40" x="377.0647" y="932.664">many</text><!--MD5=[36c1760a8f9242f2afce5483f1c2c4a5]
link SubClubs to AspNetUsers--><path codeLine="163" d="M635,327.5375 C635,349.825 635,375.5 635,402.275 " fill="none" id="SubClubs-AspNetUsers" style="stroke:#A80036;stroke-width:1.25;"/><text fill="#000000" font-family="sans-serif" font-size="16.25" lengthAdjust="spacing" textLength="40" x="592.5625" y="354.6948">many</text><text fill="#000000" font-family="sans-serif" font-size="16.25" lengthAdjust="spacing" textLength="40" x="594.1563" y="389.2418">many</text><!--MD5=[61298337ed0c73ba1d5910f935ee10d5]
reverse link AspNetUsers to AspNetUserRoles--><path codeLine="164" d="M556.875,869.0875 C556.875,869.0875 556.875,954.1625 556.875,954.1625 " fill="none" id="AspNetUsers-backto-AspNetUserRoles" style="stroke:#A80036;stroke-width:1.25;"/><polygon fill="#A80036" points="556.875,852.8375,551.875,860.3375,556.875,867.8375,561.875,860.3375,556.875,852.8375" style="stroke:#A80036;stroke-width:1.25;"/><text fill="#000000" font-family="sans-serif" font-size="16.25" lengthAdjust="spacing" textLength="8.75" x="544.9023" y="878.9191">1</text><text fill="#000000" font-family="sans-serif" font-size="16.25" lengthAdjust="spacing" textLength="40" x="524.5566" y="940.827">many</text><!--MD5=[bc32d7652b0119008bfff35438fb241a]
link AspNetUserRoles to AspNetRoles--><path codeLine="165" d="M576.45,1002.5 C590.85,1002.5 605.9,1002.5 620.525,1002.5 " fill="none" id="AspNetUserRoles-AspNetRoles" style="stroke:#A80036;stroke-width:1.25;"/><!--MD5=[1969d9b8ce7dca034cfabee6816ccee3]
link AspNetRoles to AspNetRoleClaims--><path codeLine="166" d="M804.6,1002.5 C819.1875,1002.5 834.225,1002.5 848.675,1002.5 " fill="none" id="AspNetRoles-AspNetRoleClaims" style="stroke:#A80036;stroke-width:1.25;"/><!--MD5=[b3fe18d8ad5ffc7ecf71672182a0e389]
link AspNetUsers to AspNetUserClaims--><path codeLine="167" d="M752.3,778.75 C1005.375,778.75 1580,778.75 1580,778.75 C1580,778.75 1580,740.35 1580,702.2375 " fill="none" id="AspNetUsers-AspNetUserClaims" style="stroke:#A80036;stroke-width:1.25;"/><!--MD5=[61bc8f27d8ebd18bdb2640eab362cdaa]
link AspNetUsers to AspNetUserTokens--><path codeLine="168" d="M751.9,755 C949.6125,755 1328.75,755 1328.75,755 C1328.75,755 1328.75,729.9375 1328.75,702.0375 " fill="none" id="AspNetUsers-AspNetUserTokens" style="stroke:#A80036;stroke-width:1.25;"/><!--MD5=[2cc82b2d6ce8cbf44587cf6bd408ceff]
link AspNetUsers to AspNetUserLogins--><path codeLine="169" d="M752.375,803.75 C1049.6375,803.75 1808.75,803.75 1808.75,803.75 C1808.75,803.75 1808.75,750.2875 1808.75,702.25 " fill="none" id="AspNetUsers-AspNetUserLogins" style="stroke:#A80036;stroke-width:1.25;"/><!--MD5=[e2fe3b8c9cacf41001912435f691fa02]
reverse link SubClubs to Events--><path codeLine="170" d="M728.35,291.25 C728.35,291.25 867.5,291.25 867.5,291.25 C867.5,291.25 867.5,426.3125 867.5,525.25 " fill="none" id="SubClubs-backto-Events" style="stroke:#A80036;stroke-width:1.25;"/><polygon fill="#A80036" points="712.1,291.25,719.6,296.25,727.1,291.25,719.6,286.25,712.1,291.25" style="stroke:#A80036;stroke-width:1.25;"/><text fill="#000000" font-family="sans-serif" font-size="16.25" lengthAdjust="spacing" textLength="8.75" x="722.0298" y="291.5472">1</text><text fill="#000000" font-family="sans-serif" font-size="16.25" lengthAdjust="spacing" textLength="40" x="825.7188" y="512.1403">many</text><!--MD5=[72d9cc3bd694fa0574d5e656eb8e8112]
link SubClubs to ReviewAndRates--><path codeLine="171" d="M557.7125,216.25 C406.8,216.25 87.5,216.25 87.5,216.25 C87.5,216.25 87.5,451.2125 87.5,565.9375 " fill="none" id="SubClubs-ReviewAndRates" style="stroke:#A80036;stroke-width:1.25;"/><text fill="#000000" font-family="sans-serif" font-size="16.25" lengthAdjust="spacing" textLength="8.75" x="539.5203" y="207.6995">1</text><text fill="#000000" font-family="sans-serif" font-size="16.25" lengthAdjust="spacing" textLength="8.75" x="78.1348" y="552.8171">1</text><!--MD5=[3b3c43ac66b8d762d45460c590713bc3]
link SubClubs to Reports--><path codeLine="172" d="M557.9875,291.25 C458.3875,291.25 297.5,291.25 297.5,291.25 C297.5,291.25 297.5,486.85 297.5,579.675 " fill="none" id="SubClubs-Reports" style="stroke:#A80036;stroke-width:1.25;"/><text fill="#000000" font-family="sans-serif" font-size="16.25" lengthAdjust="spacing" textLength="8.75" x="539.3184" y="291.5472">1</text><text fill="#000000" font-family="sans-serif" font-size="16.25" lengthAdjust="spacing" textLength="8.75" x="287.9707" y="566.3195">1</text><!--MD5=[2639e31212f66f8f8e36271e3c858133]
reverse link AspNetUsers to BanRecords--><path codeLine="173" d="M768.4,828.75 C768.4,828.75 1151.25,828.75 1151.25,828.75 C1151.25,828.75 1151.25,902.8625 1151.25,954.1125 " fill="none" id="AspNetUsers-backto-BanRecords" style="stroke:#A80036;stroke-width:1.25;"/><polygon fill="#A80036" points="752.15,828.75,759.65,833.75,767.15,828.75,759.65,823.75,752.15,828.75" style="stroke:#A80036;stroke-width:1.25;"/><text fill="#000000" font-family="sans-serif" font-size="16.25" lengthAdjust="spacing" textLength="8.75" x="761.834" y="840.8996">1</text><text fill="#000000" font-family="sans-serif" font-size="16.25" lengthAdjust="spacing" textLength="40" x="1108.1328" y="940.7681">many</text><!--MD5=[6871aacbd3f093c577a0c40e88081004]
reverse link SubClubs to BanRecords--><path codeLine="174" d="M728.5,253.75 C728.5,253.75 1043.125,253.75 1043.125,253.75 C1043.125,253.75 1043.125,1002.5 1043.125,1002.5 C1043.125,1002.5 1051.95,1002.5 1064.5,1002.5 " fill="none" id="SubClubs-backto-BanRecords" style="stroke:#A80036;stroke-width:1.25;"/><polygon fill="#A80036" points="712.25,253.75,719.75,258.75,727.25,253.75,719.75,248.75,712.25,253.75" style="stroke:#A80036;stroke-width:1.25;"/><text fill="#000000" font-family="sans-serif" font-size="16.25" lengthAdjust="spacing" textLength="8.75" x="721.6879" y="249.5355">1</text><text fill="#000000" font-family="sans-serif" font-size="16.25" lengthAdjust="spacing" textLength="40" x="1015.0114" y="997.221">many</text><!--MD5=[1072745205780453f2c2fa65d7468ced]
@startuml
skinparam linetype polyline
skinparam linetype ortho
class AspNetRoleClaims{
    +INTEGER <u> Id
    __
    +TEXT RoleId
    __
    +TEXT ClaimType
    __
    +TEXT ClaimValue
}
class AspNetRoles{
    +TEXT <u> Id
    __
    +TEXT Name
    __
    +TEXT NormalizedName
    __
    +TEXT ConcurrencyStamp
}
class AspNetUserClaims{
    +INTEGER <u> Id
    __
    +TEXT UserId
    __
    +TEXT ClaimType
    __
    +TEXT ClaimValue
}
class AspNetUserLogins{
    +TEXT LoginProvider
    __
    +TEXT ProviderKey
    __
    +TEXT ProviderDisplayName
    __
    +TEXT <u> UserId
}
class AspNetUserRoles{
    +TEXT<u> UserId
    __
    +TEXT RoleId
}
class AspNetUserTokens{
    +TEXT <u> UserId
    __
    +TEXT LoginProvider
    __
    +TEXT Name
    __
    +TEXT Value
}
class AspNetUsers{
    +TEXT <u> Id
    __
    +TEXT UserName
    __
    +TEXT NormalizedUserName
    __
    +TEXT Email
    __
    +TEXT NormalizedEmail
    __
    +INTEGER EmailConfirmed
    __
    +TEXT PasswordHash
    __
    +TEXT SecurityStamp
    __
    +TEXT ConcurrencyStamp
    __
    +TEXT PhoneNumber
    __
    +INTEGER PhoneNumberConfirmed
    __
    +INTEGER TwoFactorEnabled
    __
    +TEXT LockoutEnd
    __
    +INTEGER LockoutEnabled
    __
    +INTEGER AccessFailedCount
}
class Clubs{
    +INTEGER <u> ClubID
    __
    +TEXT Title
}
class Questions{
    +INTEGER <u> QuestionID
    __
    +TEXT Text
    __
    +INTEGER SubClubID
}
class SubClubs{
    +INTEGER <u> SubClubID
    __
    +TEXT Title
    __
    +TEXT ImageUrl
    __
    +INTEGER ClubID
}
class Choices{
    +INTEGER <u> ID
    __
    +TEXT Text
}
class Posts{
    +INTEGER <u> PostID
    __
    +TEXT PostSection
    __
    +ICollection<Comment> Comments
}
class Comments{
    +INTEGER<u> CommentID
    __
    +TEXT CommentString
}

class Events{
    +INTEGER<u> EventID
    __
    +TEXT Type
    __
    +TEXT Subject
    __
    +TEXT Date
    __
    +TEXT Platform
    __
    +TEXT InvitationLink
}

class ReviewAndRates{
    +INTEGER<u> ReviewID
    __
    +TEXT Review
    __
    +FLOAT Rate
}

class Reports{
    +INTEGER<u> ReportID
    __
    +TEXT ReportDescription
}

class BanRecords{
    +INTEGER<u> BanRecordID
    __
    +INTEGER BanCount
}

Clubs "1" *- - "many" SubClubs
SubClubs "1" *- - "many" Questions
Questions "1" *- - "many" Choices
SubClubs "1" *- - "many" Posts
Posts "1" *- - "many" Comments
AspNetUsers "1" *- - "many" Posts
SubClubs "many" - - "many" AspNetUsers
AspNetUsers "1" *- - "many" AspNetUserRoles
AspNetUserRoles - AspNetRoles
AspNetRoles - AspNetRoleClaims
AspNetUsers - AspNetUserClaims
AspNetUsers - AspNetUserTokens
AspNetUsers - AspNetUserLogins
SubClubs "1" *- - "many" Events
SubClubs "1" - - "1" ReviewAndRates
SubClubs "1" - - "1" Reports
AspNetUsers "1" *- - "many" BanRecords
SubClubs "1" *- - "many" BanRecords
@enduml

PlantUML version 1.2021.4(Sun Apr 04 11:49:39 TRT 2021)
(GPL source distribution)
Java Runtime: OpenJDK Runtime Environment
JVM: OpenJDK 64-Bit Server VM
Default Encoding: Cp1252
Language: en
Country: GB
--></g></svg>